<svg xmlns="http://www.w3.org/2000/svg" width="256" height="256" viewBox="0 0 128 128" role="img">
  <defs>
    <linearGradient id="blue" x1="0" x2="1" y1="0" y2="1"><stop offset="0" stop-color="#8ed7ff"/><stop offset="0.52" stop-color="#2d8bed"/><stop offset="1" stop-color="#0b3d91"/></linearGradient>
    <linearGradient id="green" x1="0" x2="1" y1="0" y2="1"><stop offset="0" stop-color="#b8f45e"/><stop offset="1" stop-color="#24823a"/></linearGradient>
    <linearGradient id="gold" x1="0" x2="1" y1="0" y2="1"><stop offset="0" stop-color="#fff4a8"/><stop offset="1" stop-color="#f0a51a"/></linearGradient>
    <linearGradient id="paper" x1="0" x2="1" y1="0" y2="1"><stop offset="0" stop-color="#ffffff"/><stop offset="1" stop-color="#dfe9ff"/></linearGradient>
    <filter id="shadow" x="-20%" y="-20%" width="140%" height="150%"><feDropShadow dx="0" dy="5" stdDeviation="4" flood-color="#092057" flood-opacity="0.28"/></filter>
  </defs><g filter="url(#shadow)"><rect x="18" y="26" width="92" height="76" rx="12" fill="#10294f"/><path d="M29 45h29v20H29zm41 0h29v20H70zM29 76h29v11H29zm41 0h29v11H70z" fill="#55c7ff" opacity=".9"/><path d="M40 110V99m48 11V99M64 26V12" stroke="#55c7ff" stroke-width="7" stroke-linecap="round"/><circle cx="64" cy="12" r="8" fill="#9bf36a"/><text x="64" y="94" text-anchor="middle" font-family="Arial, sans-serif" font-size="17" font-weight="700" fill="#fff">API</text></g></svg>
