<svg xmlns="http://www.w3.org/2000/svg" width="256" height="256" viewBox="0 0 128 128" role="img">
  <defs>
    <linearGradient id="blue" x1="0" x2="1" y1="0" y2="1"><stop offset="0" stop-color="#8ed7ff"/><stop offset="0.52" stop-color="#2d8bed"/><stop offset="1" stop-color="#0b3d91"/></linearGradient>
    <linearGradient id="green" x1="0" x2="1" y1="0" y2="1"><stop offset="0" stop-color="#b8f45e"/><stop offset="1" stop-color="#24823a"/></linearGradient>
    <linearGradient id="gold" x1="0" x2="1" y1="0" y2="1"><stop offset="0" stop-color="#fff4a8"/><stop offset="1" stop-color="#f0a51a"/></linearGradient>
    <linearGradient id="paper" x1="0" x2="1" y1="0" y2="1"><stop offset="0" stop-color="#ffffff"/><stop offset="1" stop-color="#dfe9ff"/></linearGradient>
    <filter id="shadow" x="-20%" y="-20%" width="140%" height="150%"><feDropShadow dx="0" dy="5" stdDeviation="4" flood-color="#092057" flood-opacity="0.28"/></filter>
  </defs><g filter="url(#shadow)"><rect x="18" y="21" width="92" height="80" rx="10" fill="url(#paper)"/><path d="M30 37h68v19H30z" fill="url(#blue)"/><path d="M32 72h22m20 0h22M32 88h22m20 0h22" stroke="#7894b8" stroke-width="8" stroke-linecap="round"/><path d="M78 16l7 15 17 2-12 12 3 17-15-8-15 8 3-17-12-12 17-2z" fill="url(#gold)" stroke="#7e5b00" stroke-width="3"/></g></svg>
