<svg xmlns="http://www.w3.org/2000/svg" width="256" height="256" viewBox="0 0 128 128" role="img">
  <defs>
    <linearGradient id="blue" x1="0" x2="1" y1="0" y2="1"><stop offset="0" stop-color="#8ed7ff"/><stop offset="0.52" stop-color="#2d8bed"/><stop offset="1" stop-color="#0b3d91"/></linearGradient>
    <linearGradient id="green" x1="0" x2="1" y1="0" y2="1"><stop offset="0" stop-color="#b8f45e"/><stop offset="1" stop-color="#24823a"/></linearGradient>
    <linearGradient id="gold" x1="0" x2="1" y1="0" y2="1"><stop offset="0" stop-color="#fff4a8"/><stop offset="1" stop-color="#f0a51a"/></linearGradient>
    <linearGradient id="paper" x1="0" x2="1" y1="0" y2="1"><stop offset="0" stop-color="#ffffff"/><stop offset="1" stop-color="#dfe9ff"/></linearGradient>
    <filter id="shadow" x="-20%" y="-20%" width="140%" height="150%"><feDropShadow dx="0" dy="5" stdDeviation="4" flood-color="#092057" flood-opacity="0.28"/></filter>
  </defs><g filter="url(#shadow)"><path d="M14 36h100v65a9 9 0 0 1-9 9H23a9 9 0 0 1-9-9z" fill="url(#paper)"/><path d="M18 40l46 36 46-36" fill="none" stroke="#2c7bdc" stroke-width="8" stroke-linecap="round" stroke-linejoin="round"/><path d="M20 105l36-34m52 34L72 71" stroke="#95b7df" stroke-width="6" stroke-linecap="round"/><circle cx="97" cy="30" r="18" fill="#3ac45e"/><path d="M88 31l6 6 13-15" stroke="#fff" stroke-width="6" fill="none" stroke-linecap="round" stroke-linejoin="round"/></g></svg>
