<svg xmlns="http://www.w3.org/2000/svg" width="256" height="256" viewBox="0 0 128 128" role="img">
  <defs>
    <linearGradient id="blue" x1="0" x2="1" y1="0" y2="1"><stop offset="0" stop-color="#8ed7ff"/><stop offset="0.52" stop-color="#2d8bed"/><stop offset="1" stop-color="#0b3d91"/></linearGradient>
    <linearGradient id="green" x1="0" x2="1" y1="0" y2="1"><stop offset="0" stop-color="#b8f45e"/><stop offset="1" stop-color="#24823a"/></linearGradient>
    <linearGradient id="gold" x1="0" x2="1" y1="0" y2="1"><stop offset="0" stop-color="#fff4a8"/><stop offset="1" stop-color="#f0a51a"/></linearGradient>
    <linearGradient id="paper" x1="0" x2="1" y1="0" y2="1"><stop offset="0" stop-color="#ffffff"/><stop offset="1" stop-color="#dfe9ff"/></linearGradient>
    <filter id="shadow" x="-20%" y="-20%" width="140%" height="150%"><feDropShadow dx="0" dy="5" stdDeviation="4" flood-color="#092057" flood-opacity="0.28"/></filter>
  </defs><g filter="url(#shadow)"><path d="M14 40h36l10 12h54v52a10 10 0 0 1-10 10H24a10 10 0 0 1-10-10z" fill="url(#gold)"/><path d="M22 32h34l9 11h47v14H14V42a10 10 0 0 1 8-10Z" fill="#ffe488"/><path d="M24 62h78v39H24z" fill="#fff7c9" opacity=".5"/></g></svg>
