<svg xmlns="http://www.w3.org/2000/svg" width="256" height="256" viewBox="0 0 128 128" role="img">
  <defs>
    <linearGradient id="blue" x1="0" x2="1" y1="0" y2="1"><stop offset="0" stop-color="#8ed7ff"/><stop offset="0.52" stop-color="#2d8bed"/><stop offset="1" stop-color="#0b3d91"/></linearGradient>
    <linearGradient id="green" x1="0" x2="1" y1="0" y2="1"><stop offset="0" stop-color="#b8f45e"/><stop offset="1" stop-color="#24823a"/></linearGradient>
    <linearGradient id="gold" x1="0" x2="1" y1="0" y2="1"><stop offset="0" stop-color="#fff4a8"/><stop offset="1" stop-color="#f0a51a"/></linearGradient>
    <linearGradient id="paper" x1="0" x2="1" y1="0" y2="1"><stop offset="0" stop-color="#ffffff"/><stop offset="1" stop-color="#dfe9ff"/></linearGradient>
    <filter id="shadow" x="-20%" y="-20%" width="140%" height="150%"><feDropShadow dx="0" dy="5" stdDeviation="4" flood-color="#092057" flood-opacity="0.28"/></filter>
  </defs><g filter="url(#shadow)"><rect x="18" y="18" width="92" height="92" rx="8" fill="#d7d1c3"/><path d="M30 30h68v68H30z" fill="#bdb8aa"/><path d="M30 52h68M30 75h68M52 30v68M75 30v68" stroke="#ece9d8" stroke-width="4"/><circle cx="64" cy="64" r="17" fill="#222"/><path d="M64 39v50M39 64h50M47 47l34 34M81 47L47 81" stroke="#222" stroke-width="5"/><circle cx="81" cy="45" r="5" fill="#fff"/></g></svg>
