<svg xmlns="http://www.w3.org/2000/svg" width="256" height="256" viewBox="0 0 256 256" role="img" aria-labelledby="title desc">
  <title id="title">Buscaminas XP</title>
  <desc id="desc">Mina tridimensional azul sobre una casilla biselada con una bandera roja.</desc>
  <defs>
    <linearGradient id="tile" x1="30" y1="22" x2="218" y2="228" gradientUnits="userSpaceOnUse">
      <stop stop-color="#fbfbf8"/>
      <stop offset="0.34" stop-color="#dedbd1"/>
      <stop offset="1" stop-color="#9d9a91"/>
    </linearGradient>
    <radialGradient id="mine" cx="0" cy="0" r="1" gradientTransform="translate(91 80) rotate(48) scale(122)" gradientUnits="userSpaceOnUse">
      <stop stop-color="#f5f5ff"/>
      <stop offset="0.18" stop-color="#b9bdf6"/>
      <stop offset="0.5" stop-color="#5856be"/>
      <stop offset="0.78" stop-color="#26258d"/>
      <stop offset="1" stop-color="#10115a"/>
    </radialGradient>
    <linearGradient id="spike" x1="0" y1="0" x2="1" y2="1">
      <stop stop-color="#dadcff"/>
      <stop offset="0.42" stop-color="#6564ca"/>
      <stop offset="1" stop-color="#20217f"/>
    </linearGradient>
    <linearGradient id="flag" x1="0" y1="0" x2="1" y2="1">
      <stop stop-color="#ff735d"/>
      <stop offset="0.55" stop-color="#e62924"/>
      <stop offset="1" stop-color="#991513"/>
    </linearGradient>
    <filter id="shadow" x="-30%" y="-30%" width="170%" height="180%">
      <feDropShadow dx="0" dy="9" stdDeviation="8" flood-color="#06144c" flood-opacity="0.4"/>
    </filter>
  </defs>

  <g filter="url(#shadow)">
    <rect x="25" y="30" width="206" height="196" rx="16" fill="url(#tile)" stroke="#65645f" stroke-width="5"/>
    <path d="M33 205V45a8 8 0 0 1 8-8h170" fill="none" stroke="#fff" stroke-width="7" opacity="0.9"/>
    <path d="M46 90h164M46 145h164M91 49v156M146 49v156" stroke="#a6a39b" stroke-width="3" opacity="0.55"/>

    <g transform="translate(125 133)">
      <g fill="url(#spike)" stroke="#17186d" stroke-width="3">
        <rect x="-12" y="-99" width="24" height="48" rx="10"/>
        <rect x="-12" y="51" width="24" height="48" rx="10"/>
        <rect x="51" y="-12" width="48" height="24" rx="10"/>
        <rect x="-99" y="-12" width="48" height="24" rx="10"/>
        <rect x="-12" y="-99" width="24" height="48" rx="10" transform="rotate(45)"/>
        <rect x="-12" y="51" width="24" height="48" rx="10" transform="rotate(45)"/>
        <rect x="-99" y="-12" width="48" height="24" rx="10" transform="rotate(45)"/>
        <rect x="51" y="-12" width="48" height="24" rx="10" transform="rotate(45)"/>
      </g>
      <circle r="68" fill="url(#mine)" stroke="#15166a" stroke-width="5"/>
      <ellipse cx="-25" cy="-31" rx="18" ry="12" fill="#fff" opacity="0.82" transform="rotate(-28)"/>
      <circle cx="-3" cy="-7" r="8" fill="#fff" opacity="0.42"/>
      <path d="M34 24c-8 18-21 29-40 35" fill="none" stroke="#aeb3fa" stroke-width="8" stroke-linecap="round" opacity="0.42"/>
    </g>

    <g transform="translate(176 38)">
      <path d="M0 4v73" stroke="#2b2a27" stroke-width="7" stroke-linecap="round"/>
      <path d="M4 8h47L32 29 51 48H4z" fill="url(#flag)" stroke="#82120f" stroke-width="3" stroke-linejoin="round"/>
      <path d="M-11 79h31" stroke="#2b2a27" stroke-width="8" stroke-linecap="round"/>
    </g>
  </g>
</svg>
