<svg xmlns="http://www.w3.org/2000/svg" width="256" height="256" viewBox="0 0 128 128" role="img">
  <defs>
    <linearGradient id="blue" x1="0" x2="1" y1="0" y2="1"><stop offset="0" stop-color="#8ed7ff"/><stop offset="0.52" stop-color="#2d8bed"/><stop offset="1" stop-color="#0b3d91"/></linearGradient>
    <linearGradient id="green" x1="0" x2="1" y1="0" y2="1"><stop offset="0" stop-color="#b8f45e"/><stop offset="1" stop-color="#24823a"/></linearGradient>
    <linearGradient id="gold" x1="0" x2="1" y1="0" y2="1"><stop offset="0" stop-color="#fff4a8"/><stop offset="1" stop-color="#f0a51a"/></linearGradient>
    <linearGradient id="paper" x1="0" x2="1" y1="0" y2="1"><stop offset="0" stop-color="#ffffff"/><stop offset="1" stop-color="#dfe9ff"/></linearGradient>
    <filter id="shadow" x="-20%" y="-20%" width="140%" height="150%"><feDropShadow dx="0" dy="5" stdDeviation="4" flood-color="#092057" flood-opacity="0.28"/></filter>
  </defs><g filter="url(#shadow)"><path d="M22 22h58a8 8 0 0 1 8 8v39a8 8 0 0 1-8 8H22a8 8 0 0 1-8-8V30a8 8 0 0 1 8-8Z" fill="url(#blue)"/><path d="M22 29h58v37H22z" fill="#dff4ff"/><path d="M36 86h29l5 14H31z" fill="#bccce0"/><path d="M26 101h49v8H26z" fill="#7597c8"/><path d="M92 37h15a6 6 0 0 1 6 6v54a6 6 0 0 1-6 6H92z" fill="#d7dde6"/><path d="M98 48h9M98 59h9M98 84h9" stroke="#7c8da8" stroke-width="3" stroke-linecap="round"/></g></svg>
