<svg xmlns="http://www.w3.org/2000/svg" width="256" height="256" viewBox="0 0 128 128" role="img">
  <defs>
    <linearGradient id="blue" x1="0" x2="1" y1="0" y2="1"><stop offset="0" stop-color="#8ed7ff"/><stop offset="0.52" stop-color="#2d8bed"/><stop offset="1" stop-color="#0b3d91"/></linearGradient>
    <linearGradient id="green" x1="0" x2="1" y1="0" y2="1"><stop offset="0" stop-color="#b8f45e"/><stop offset="1" stop-color="#24823a"/></linearGradient>
    <linearGradient id="gold" x1="0" x2="1" y1="0" y2="1"><stop offset="0" stop-color="#fff4a8"/><stop offset="1" stop-color="#f0a51a"/></linearGradient>
    <linearGradient id="paper" x1="0" x2="1" y1="0" y2="1"><stop offset="0" stop-color="#ffffff"/><stop offset="1" stop-color="#dfe9ff"/></linearGradient>
    <filter id="shadow" x="-20%" y="-20%" width="140%" height="150%"><feDropShadow dx="0" dy="5" stdDeviation="4" flood-color="#092057" flood-opacity="0.28"/></filter>
  </defs><g filter="url(#shadow)"><path d="M64 16c-27 0-49 18-49 41 0 20 16 35 38 39h9c5 0 8 4 8 9 0 6 5 9 11 7 19-6 32-22 32-42 0-30-22-54-49-54Z" fill="url(#paper)"/><circle cx="43" cy="50" r="8" fill="#e84a5f"/><circle cx="65" cy="39" r="8" fill="#22c55e"/><circle cx="86" cy="53" r="8" fill="#3b82f6"/><circle cx="55" cy="73" r="8" fill="#facc15"/><path d="M79 80l30 30" stroke="#7a4a16" stroke-width="10" stroke-linecap="round"/><path d="M73 74l13 13" stroke="#ffd699" stroke-width="12" stroke-linecap="round"/></g></svg>
