<svg xmlns="http://www.w3.org/2000/svg" width="256" height="256" viewBox="0 0 128 128" role="img">
  <defs>
    <linearGradient id="blue" x1="0" x2="1" y1="0" y2="1"><stop offset="0" stop-color="#8ed7ff"/><stop offset="0.52" stop-color="#2d8bed"/><stop offset="1" stop-color="#0b3d91"/></linearGradient>
    <linearGradient id="green" x1="0" x2="1" y1="0" y2="1"><stop offset="0" stop-color="#b8f45e"/><stop offset="1" stop-color="#24823a"/></linearGradient>
    <linearGradient id="gold" x1="0" x2="1" y1="0" y2="1"><stop offset="0" stop-color="#fff4a8"/><stop offset="1" stop-color="#f0a51a"/></linearGradient>
    <linearGradient id="paper" x1="0" x2="1" y1="0" y2="1"><stop offset="0" stop-color="#ffffff"/><stop offset="1" stop-color="#dfe9ff"/></linearGradient>
    <filter id="shadow" x="-20%" y="-20%" width="140%" height="150%"><feDropShadow dx="0" dy="5" stdDeviation="4" flood-color="#092057" flood-opacity="0.28"/></filter>
  </defs><g filter="url(#shadow)"><path d="M35 11h58l18 24v77a8 8 0 0 1-8 8H25a8 8 0 0 1-8-8V35z" fill="#183b91"/><circle cx="64" cy="48" r="17" fill="url(#gold)"/><circle cx="43" cy="78" r="12" fill="#62d5ff"/><circle cx="84" cy="78" r="12" fill="#ff6b6b"/><path d="M35 104l24-14m34 14L69 90" stroke="#fff" stroke-width="7" stroke-linecap="round"/><circle cx="64" cy="26" r="7" fill="#fff"/></g></svg>
