<svg xmlns="http://www.w3.org/2000/svg" xmlns:xlink="http://www.w3.org/1999/xlink" width="48" height="48" viewBox="0 0 48 48"><defs><linearGradient id="b"><stop offset="0" style="stop-color:#000;stop-opacity:1"/><stop offset="1" style="stop-color:#000;stop-opacity:0"/></linearGradient><linearGradient id="i"><stop offset="0" style="stop-color:#727e0a;stop-opacity:1"/><stop offset="1" style="stop-color:#5b6508;stop-opacity:1"/></linearGradient><linearGradient id="h"><stop offset="0" style="stop-color:#e9b15e;stop-opacity:1"/><stop offset="1" style="stop-color:#966416;stop-opacity:1"/></linearGradient><linearGradient id="e"><stop offset="0" style="stop-color:#3b74bc;stop-opacity:1"/><stop offset="1" style="stop-color:#2d5990;stop-opacity:1"/></linearGradient><linearGradient id="a"><stop offset="0" style="stop-color:#fff;stop-opacity:1"/><stop offset="1" style="stop-color:#c9c9c9;stop-opacity:1"/></linearGradient><linearGradient id="d"><stop offset="0" style="stop-color:#000;stop-opacity:1"/><stop offset="1" style="stop-color:#000;stop-opacity:0"/></linearGradient><linearGradient id="f"><stop offset="0" style="stop-color:#f4d9b1;stop-opacity:1"/><stop offset="1" style="stop-color:#df9725;stop-opacity:1"/></linearGradient><linearGradient xlink:href="#a" id="s" x1="30.936" x2="30.936" y1="29.553" y2="35.803" gradientUnits="userSpaceOnUse"/><linearGradient xlink:href="#b" id="v" x1="20.662" x2="22.627" y1="35.818" y2="36.218" gradientTransform="rotate(10.462 17.596 32.707)" gradientUnits="userSpaceOnUse"/><linearGradient xlink:href="#b" id="w" x1="22.687" x2="21.408" y1="36.39" y2="35.74" gradientTransform="rotate(167.873 27.764 .954)scale(1 -1)" gradientUnits="userSpaceOnUse"/><linearGradient xlink:href="#b" id="p" x1="22.687" x2="21.408" y1="36.39" y2="35.74" gradientTransform="rotate(167.873 21.493 -3.339)scale(1 -1)" gradientUnits="userSpaceOnUse"/><linearGradient xlink:href="#b" id="o" x1="20.662" x2="22.627" y1="35.818" y2="36.218" gradientTransform="rotate(10.462 50.12 -43.535)" gradientUnits="userSpaceOnUse"/><linearGradient xlink:href="#a" id="n" x1="30.936" x2="30.936" y1="29.553" y2="35.803" gradientTransform="translate(-12.418 -7)" gradientUnits="userSpaceOnUse"/><radialGradient xlink:href="#d" id="t" cx="31.113" cy="19.009" r="8.662" fx="31.113" fy="19.009" gradientUnits="userSpaceOnUse"/><radialGradient xlink:href="#e" id="r" cx="28.09" cy="27.203" r="13.565" fx="28.09" fy="27.203" gradientTransform="matrix(1.29756 0 0 .88483 -8.359 4.94)" gradientUnits="userSpaceOnUse"/><radialGradient xlink:href="#f" id="u" cx="29.345" cy="17.064" r="9.162" fx="29.345" fy="17.064" gradientTransform="translate(6.221 3.618)scale(.788)" gradientUnits="userSpaceOnUse"/><radialGradient xlink:href="#d" id="q" cx="31.113" cy="19.009" r="8.662" fx="31.113" fy="19.009" gradientUnits="userSpaceOnUse"/><radialGradient xlink:href="#h" id="m" cx="29.345" cy="17.064" r="9.162" fx="29.345" fy="17.064" gradientTransform="translate(6.221 3.618)scale(.788)" gradientUnits="userSpaceOnUse"/><radialGradient xlink:href="#d" id="l" cx="31.113" cy="19.009" r="8.662" fx="31.113" fy="19.009" gradientUnits="userSpaceOnUse"/><radialGradient xlink:href="#d" id="j" cx="31.113" cy="19.009" r="8.662" fx="31.113" fy="19.009" gradientUnits="userSpaceOnUse"/><radialGradient xlink:href="#i" id="k" cx="16.215" cy="19.836" r="13.565" fx="16.215" fy="19.836" gradientTransform="matrix(1 0 0 .68192 0 8.234)" gradientUnits="userSpaceOnUse"/></defs><g style="display:inline"><path d="M39.775 19.009a8.662 8.662 0 1 1-17.324 0 8.662 8.662 0 1 1 17.324 0" style="opacity:1;color:#000;fill:url(#j);fill-opacity:1;fill-rule:evenodd;stroke:none;stroke-width:1px;stroke-linecap:round;stroke-linejoin:round;marker:none;marker-start:none;marker-mid:none;marker-end:none;stroke-miterlimit:4;stroke-dasharray:none;stroke-dashoffset:0;stroke-opacity:1;visibility:visible;display:inline;overflow:visible" transform="matrix(1.77551 0 0 .95918 -37.378 11.772)"/><path d="M12.861 34.636h10.607c3.005 0 5.98-1.102 7.07-4.243 1.036-2.982.178-8.662-6.54-13.258H11.447C4.729 21.378 3.89 27.18 5.437 30.57c1.575 3.454 4.242 4.066 7.424 4.066" style="opacity:1;color:#000;fill:url(#k);fill-opacity:1;fill-rule:evenodd;stroke:#404604;stroke-width:1px;stroke-linecap:round;stroke-linejoin:round;marker:none;marker-start:none;marker-mid:none;marker-end:none;stroke-miterlimit:4;stroke-dasharray:none;stroke-dashoffset:0;stroke-opacity:1;visibility:visible;display:inline;overflow:visible"/><path d="M17.932 19.787s-2.151 1.66-1.966 3.66c-2.04-1.8-2.1-5.251-2.1-5.251z" style="opacity:1;color:#000;fill:#9db029;fill-opacity:1;fill-rule:evenodd;stroke:none;stroke-width:1px;stroke-linecap:round;stroke-linejoin:round;marker:none;marker-start:none;marker-mid:none;marker-end:none;stroke-miterlimit:4;stroke-dasharray:none;stroke-dashoffset:0;stroke-opacity:1;visibility:visible;display:inline;overflow:visible"/><path d="M12.967 33.572h10.316c2.64 0 5.253-.968 6.211-3.727.91-2.62-.094-7.608-5.995-11.646H11.974C6.074 21.926 5.086 27.023 6.445 30c1.384 3.034 3.727 3.572 6.522 3.572" style="opacity:.21518983;color:#000;fill:none;fill-opacity:1;fill-rule:evenodd;stroke:#fff;stroke-width:.99999976px;stroke-linecap:round;stroke-linejoin:round;marker:none;marker-start:none;marker-mid:none;marker-end:none;stroke-miterlimit:4;stroke-dasharray:none;stroke-dashoffset:0;stroke-opacity:1;visibility:visible;display:inline;overflow:visible"/><path d="M18.91 19.787s2.152 1.66 1.967 3.66c2.041-1.8 2.1-5.251 2.1-5.251z" style="opacity:1;color:#000;fill:#9db029;fill-opacity:1;fill-rule:evenodd;stroke:none;stroke-width:1px;stroke-linecap:round;stroke-linejoin:round;marker:none;marker-start:none;marker-mid:none;marker-end:none;stroke-miterlimit:4;stroke-dasharray:none;stroke-dashoffset:0;stroke-opacity:1;visibility:visible;display:inline;overflow:visible"/><path d="M39.775 19.009a8.662 8.662 0 1 1-17.324 0 8.662 8.662 0 1 1 17.324 0" style="opacity:1;color:#000;fill:url(#l);fill-opacity:1;fill-rule:evenodd;stroke:none;stroke-width:1px;stroke-linecap:round;stroke-linejoin:round;marker:none;marker-start:none;marker-mid:none;marker-end:none;stroke-miterlimit:4;stroke-dasharray:none;stroke-dashoffset:0;stroke-opacity:1;visibility:visible;display:inline;overflow:visible" transform="translate(-13.25 -3.5)"/><path d="M39.775 19.009a8.662 8.662 0 1 1-17.324 0 8.662 8.662 0 1 1 17.324 0" style="opacity:1;color:#000;fill:url(#m);fill-opacity:1;fill-rule:evenodd;stroke:#6f4709;stroke-width:1px;stroke-linecap:round;stroke-linejoin:round;marker:none;marker-start:none;marker-mid:none;marker-end:none;stroke-miterlimit:4;stroke-dasharray:none;stroke-dashoffset:0;stroke-opacity:1;visibility:visible;display:inline;overflow:visible" transform="translate(-13.125 -7)"/><path d="M39.775 19.009a8.662 8.662 0 1 1-17.324 0 8.662 8.662 0 1 1 17.324 0" style="opacity:.12658228;color:#000;fill:none;fill-opacity:1;fill-rule:evenodd;stroke:#fff;stroke-width:1.1401283px;stroke-linecap:round;stroke-linejoin:round;marker:none;marker-start:none;marker-mid:none;marker-end:none;stroke-miterlimit:4;stroke-dasharray:none;stroke-dashoffset:0;stroke-opacity:1;visibility:visible;display:inline;overflow:visible" transform="translate(-9.301 -4.664)scale(.8771)"/><path d="M22.584 27.035h4.243l-2.475-2.298-.53.707-.531-.53z" style="opacity:1;color:#000;fill:url(#n);fill-opacity:1;fill-rule:evenodd;stroke:none;stroke-width:1px;stroke-linecap:round;stroke-linejoin:round;marker:none;marker-start:none;marker-mid:none;marker-end:none;stroke-miterlimit:4;stroke-dasharray:none;stroke-dashoffset:0;stroke-opacity:1;visibility:visible;display:inline;overflow:visible"/><path d="M8.548 33.602c-1.248-.545-1.806-1.859-1.806-1.859.841-4.069 3.72-7.046 3.72-7.046s-2.28 6.412-1.914 8.905" style="opacity:.22784807;color:#000;fill:url(#o);fill-opacity:1;fill-rule:evenodd;stroke:none;stroke-width:1px;stroke-linecap:round;stroke-linejoin:round;marker:none;marker-start:none;marker-mid:none;marker-end:none;stroke-miterlimit:4;stroke-dasharray:none;stroke-dashoffset:0;stroke-opacity:1;visibility:visible;display:inline;overflow:visible"/><path d="M27.454 32.743c1.23-.58 1.804-2.002 1.804-2.002-.96-4.043-3.976-6.843-3.976-6.843s2.464 6.343 2.172 8.845" style="opacity:.22784807;color:#000;fill:url(#p);fill-opacity:1;fill-rule:evenodd;stroke:none;stroke-width:1px;stroke-linecap:round;stroke-linejoin:round;marker:none;marker-start:none;marker-mid:none;marker-end:none;stroke-miterlimit:4;stroke-dasharray:none;stroke-dashoffset:0;stroke-opacity:1;visibility:visible;display:inline;overflow:visible"/></g><g style="display:inline"><path d="M39.775 19.009a8.662 8.662 0 1 1-17.324 0 8.662 8.662 0 1 1 17.324 0" style="opacity:1;color:#000;fill:url(#q);fill-opacity:1;fill-rule:evenodd;stroke:none;stroke-width:1px;stroke-linecap:round;stroke-linejoin:round;marker:none;marker-start:none;marker-mid:none;marker-end:none;stroke-miterlimit:4;stroke-dasharray:none;stroke-dashoffset:0;stroke-opacity:1;visibility:visible;display:inline;overflow:visible" transform="matrix(1.77551 0 0 .58398 -24.253 28.279)"/><path d="M25.986 41.636h10.607c3.005 0 5.98-1.102 7.07-4.243 1.036-2.982.178-8.662-6.54-13.258H24.572c-6.718 4.243-7.557 10.045-6.01 13.435 1.575 3.454 4.242 4.066 7.424 4.066" style="opacity:1;color:#000;fill:url(#r);fill-opacity:1;fill-rule:evenodd;stroke:#204a87;stroke-width:1px;stroke-linecap:round;stroke-linejoin:round;marker:none;marker-start:none;marker-mid:none;marker-end:none;stroke-miterlimit:4;stroke-dasharray:none;stroke-dashoffset:0;stroke-opacity:1;visibility:visible;display:inline;overflow:visible"/><path d="M26.693 25.726c3.182 2.829 4.596 13.082 4.596 13.082s1.415-10.253 3.89-13.259z" style="opacity:1;color:#000;fill:url(#s);fill-opacity:1;fill-rule:evenodd;stroke:none;stroke-width:1px;stroke-linecap:round;stroke-linejoin:round;marker:none;marker-start:none;marker-mid:none;marker-end:none;stroke-miterlimit:4;stroke-dasharray:none;stroke-dashoffset:0;stroke-opacity:1;visibility:visible;display:inline;overflow:visible"/><path d="M28.973 26.787s-2.152 1.66-1.966 3.66c-2.041-1.8-2.1-5.251-2.1-5.251z" style="opacity:1;color:#000;fill:#729fcf;fill-opacity:1;fill-rule:evenodd;stroke:none;stroke-width:1px;stroke-linecap:round;stroke-linejoin:round;marker:none;marker-start:none;marker-mid:none;marker-end:none;stroke-miterlimit:4;stroke-dasharray:none;stroke-dashoffset:0;stroke-opacity:1;visibility:visible;display:inline;overflow:visible"/><path d="m25.915 40.594 10.493-.022c2.64 0 5.253-.968 6.211-3.727.91-2.62-.094-7.608-5.995-11.646L25.1 24.956C19.2 28.683 18.057 33.78 19.437 37c1.381 3.221 3.396 3.572 6.478 3.594" style="opacity:.21518983;color:#000;fill:none;fill-opacity:1;fill-rule:evenodd;stroke:#fff;stroke-width:.99999976px;stroke-linecap:round;stroke-linejoin:round;marker:none;marker-start:none;marker-mid:none;marker-end:none;stroke-miterlimit:4;stroke-dasharray:none;stroke-dashoffset:0;stroke-opacity:1;visibility:visible;display:inline;overflow:visible"/><path d="M33.41 26.787s2.152 1.66 1.967 3.66c2.041-1.8 2.1-5.251 2.1-5.251z" style="opacity:1;color:#000;fill:#729fcf;fill-opacity:1;fill-rule:evenodd;stroke:none;stroke-width:1px;stroke-linecap:round;stroke-linejoin:round;marker:none;marker-start:none;marker-mid:none;marker-end:none;stroke-miterlimit:4;stroke-dasharray:none;stroke-dashoffset:0;stroke-opacity:1;visibility:visible;display:inline;overflow:visible"/><path d="M39.775 19.009a8.662 8.662 0 1 1-17.324 0 8.662 8.662 0 1 1 17.324 0" style="opacity:1;color:#000;fill:url(#t);fill-opacity:1;fill-rule:evenodd;stroke:none;stroke-width:1px;stroke-linecap:round;stroke-linejoin:round;marker:none;marker-start:none;marker-mid:none;marker-end:none;stroke-miterlimit:4;stroke-dasharray:none;stroke-dashoffset:0;stroke-opacity:1;visibility:visible;display:inline;overflow:visible" transform="translate(-.125 3.5)"/><path d="M39.775 19.009a8.662 8.662 0 1 1-17.324 0 8.662 8.662 0 1 1 17.324 0" style="opacity:1;color:#000;fill:url(#u);fill-opacity:1;fill-rule:evenodd;stroke:#c17d11;stroke-width:1px;stroke-linecap:round;stroke-linejoin:round;marker:none;marker-start:none;marker-mid:none;marker-end:none;stroke-miterlimit:4;stroke-dasharray:none;stroke-dashoffset:0;stroke-opacity:1;visibility:visible;display:inline;overflow:visible"/><path d="M39.775 19.009a8.662 8.662 0 1 1-17.324 0 8.662 8.662 0 1 1 17.324 0" style="opacity:.19620253;color:#000;fill:none;fill-opacity:1;fill-rule:evenodd;stroke:#fff;stroke-width:1.1401283px;stroke-linecap:round;stroke-linejoin:round;marker:none;marker-start:none;marker-mid:none;marker-end:none;stroke-miterlimit:4;stroke-dasharray:none;stroke-dashoffset:0;stroke-opacity:1;visibility:visible;display:inline;overflow:visible" transform="translate(3.824 2.336)scale(.8771)"/><path d="M21.852 40.775c-1.248-.545-1.806-1.858-1.806-1.858.841-4.07 3.72-7.046 3.72-7.046s-2.28 6.411-1.914 8.904" style="opacity:.22784807;color:#000;fill:url(#v);fill-opacity:1;fill-rule:evenodd;stroke:none;stroke-width:1px;stroke-linecap:round;stroke-linejoin:round;marker:none;marker-start:none;marker-mid:none;marker-end:none;stroke-miterlimit:4;stroke-dasharray:none;stroke-dashoffset:0;stroke-opacity:1;visibility:visible;display:inline;overflow:visible"/><path d="M40.757 39.917c1.232-.581 1.805-2.002 1.805-2.002-.96-4.043-3.976-6.843-3.976-6.843s2.464 6.342 2.171 8.845" style="opacity:.22784807;color:#000;fill:url(#w);fill-opacity:1;fill-rule:evenodd;stroke:none;stroke-width:1px;stroke-linecap:round;stroke-linejoin:round;marker:none;marker-start:none;marker-mid:none;marker-end:none;stroke-miterlimit:4;stroke-dasharray:none;stroke-dashoffset:0;stroke-opacity:1;visibility:visible;display:inline;overflow:visible"/></g></svg>