<svg xmlns="http://www.w3.org/2000/svg" xmlns:xlink="http://www.w3.org/1999/xlink" width="48" height="48" viewBox="0 0 48 48"><defs><linearGradient id="i"><stop offset="0" style="stop-color:black;stop-opacity:1"/><stop offset="1" style="stop-color:black;stop-opacity:0"/></linearGradient><linearGradient id="a"><stop offset="0" style="stop-color:black;stop-opacity:0"/><stop offset=".5" style="stop-color:black;stop-opacity:1"/><stop offset="1" style="stop-color:black;stop-opacity:0"/></linearGradient><linearGradient xlink:href="#a" id="l" x1="302.857" x2="302.857" y1="366.648" y2="609.505" gradientTransform="matrix(2.77439 0 0 1.9697 -1892.179 -872.885)" gradientUnits="userSpaceOnUse"/><linearGradient id="f"><stop offset="0" style="stop-color:#616161;stop-opacity:1"/><stop offset="1" style="stop-color:#a0a0a0;stop-opacity:1"/></linearGradient><linearGradient id="c"><stop offset="0" style="stop-color:#a2a59c;stop-opacity:1"/><stop offset="1" style="stop-color:#535750;stop-opacity:1"/></linearGradient><linearGradient id="b"><stop offset="0" style="stop-color:#fff;stop-opacity:1"/><stop offset="1" style="stop-color:#fcfcff;stop-opacity:0"/></linearGradient><linearGradient xlink:href="#b" id="u" x1="11.492" x2="17.199" y1="1.654" y2="26.729" gradientTransform="matrix(1.23616 0 0 .89605 -1.082 2.83)" gradientUnits="userSpaceOnUse"/><linearGradient id="e"><stop offset="0" style="stop-color:#fff;stop-opacity:1"/><stop offset="1" style="stop-color:#fff;stop-opacity:0"/></linearGradient><linearGradient id="g"><stop offset="0" style="stop-color:#a9aaa7;stop-opacity:1"/><stop offset="1" style="stop-color:#676964;stop-opacity:1"/></linearGradient><linearGradient xlink:href="#c" id="p" x1="8.653" x2="21.305" y1="9.587" y2="32.498" gradientTransform="matrix(.95741 0 0 .95233 1.023 .133)" gradientUnits="userSpaceOnUse"/><linearGradient xlink:href="#e" id="s" x1="20.339" x2="48.845" y1="19.637" y2="49.731" gradientTransform="matrix(.9535 0 0 .94787 1.142 1.206)" gradientUnits="userSpaceOnUse"/><linearGradient xlink:href="#f" id="q" x1="11.048" x2="26.178" y1="9.146" y2="30.343" gradientTransform="matrix(.99758 0 0 .98994 .104 .07)" gradientUnits="userSpaceOnUse"/><linearGradient xlink:href="#g" id="v" x1="40.253" x2="36.452" y1="42.319" y2="38" gradientTransform="matrix(1 0 0 .74476 0 9.57)" gradientUnits="userSpaceOnUse"/><radialGradient xlink:href="#i" id="o" cx="605.714" cy="486.648" r="117.143" fx="605.714" fy="486.648" gradientTransform="matrix(-2.77439 0 0 1.9697 112.762 -872.885)" gradientUnits="userSpaceOnUse"/><radialGradient xlink:href="#i" id="m" cx="605.714" cy="486.648" r="117.143" fx="605.714" fy="486.648" gradientTransform="matrix(2.77439 0 0 1.9697 -1891.633 -872.885)" gradientUnits="userSpaceOnUse"/></defs><path d="M-1559.252-150.697h1339.633V327.66h-1339.633z" style="opacity:.40206185;color:#000;fill:url(#l);fill-opacity:1;fill-rule:nonzero;stroke:none;stroke-width:1;stroke-linecap:round;stroke-linejoin:miter;marker:none;marker-start:none;marker-mid:none;marker-end:none;stroke-miterlimit:4;stroke-dasharray:none;stroke-dashoffset:0;stroke-opacity:1;visibility:visible;display:inline;overflow:visible" transform="matrix(.02454 0 0 .02087 46.144 39.341)"/><path d="M-219.619-150.68v478.33c142.874.9 345.4-107.17 345.4-239.196S-33.655-150.68-219.619-150.68" style="opacity:.40206185;color:#000;fill:url(#m);fill-opacity:1;fill-rule:nonzero;stroke:none;stroke-width:1;stroke-linecap:round;stroke-linejoin:miter;marker:none;marker-start:none;marker-mid:none;marker-end:none;stroke-miterlimit:4;stroke-dasharray:none;stroke-dashoffset:0;stroke-opacity:1;visibility:visible;display:inline;overflow:visible" transform="matrix(.02454 0 0 .02087 46.144 39.341)"/><path d="M-1559.252-150.68v478.33c-142.875.9-345.4-107.17-345.4-239.196s159.436-239.134 345.4-239.134" style="opacity:.40206185;color:#000;fill:url(#o);fill-opacity:1;fill-rule:nonzero;stroke:none;stroke-width:1;stroke-linecap:round;stroke-linejoin:miter;marker:none;marker-start:none;marker-mid:none;marker-end:none;stroke-miterlimit:4;stroke-dasharray:none;stroke-dashoffset:0;stroke-opacity:1;visibility:visible;display:inline;overflow:visible" transform="matrix(.02454 0 0 .02087 46.144 39.341)"/><rect width="44.996" height="38.999" x="1.503" y="3.502" rx="4.852" ry="4.852" style="opacity:1;fill:url(#p);fill-opacity:1;fill-rule:evenodd;stroke:url(#p);stroke-width:.99999946;stroke-linecap:round;stroke-linejoin:round;stroke-miterlimit:4;stroke-dasharray:none;stroke-dashoffset:0;stroke-opacity:1"/><rect width="37.088" height="29.022" x="5.496" y="7.483" rx="1.645" ry="1.645" style="opacity:1;fill:url(#q);fill-opacity:1;fill-rule:evenodd;stroke:url(#q);stroke-width:.99495775;stroke-linecap:round;stroke-linejoin:round;stroke-miterlimit:4;stroke-dasharray:none;stroke-dashoffset:0;stroke-opacity:1"/><g style="opacity:.25568182"><path d="M8.015 11.5h31.98m-31.98 2h31.98m-31.98 2h31.98m-31.98 2h31.98m-31.98 2h31.98m-31.98 2h31.98m-31.98 2h31.98m-31.98 2h31.98m-31.98 2h31.98m-31.98 2h31.98m-31.98 2h31.98m-31.98 2h31.98" style="fill:none;fill-opacity:.75;fill-rule:evenodd;stroke:#181f10;stroke-width:1.00072134;stroke-linecap:butt;stroke-linejoin:miter;stroke-miterlimit:4;stroke-dasharray:none;stroke-opacity:1"/></g><rect width="42.945" height="37.001" x="2.554" y="4.501" rx="3.791" ry="3.791" style="opacity:.76373626;fill:none;fill-opacity:1;fill-rule:evenodd;stroke:url(#s);stroke-width:.99999946;stroke-linecap:round;stroke-linejoin:round;stroke-miterlimit:4;stroke-dasharray:none;stroke-dashoffset:0;stroke-opacity:1"/><path d="M11.625 20.68v-3.055l8.985 4.06v1.857l-8.985 4.087v-3.045l6.964-1.854zm18.893 10.026v1.974H19.614v-1.974h10.904" style="font-size:18.585011px;font-style:normal;font-variant:normal;font-weight:700;font-stretch:normal;text-align:start;line-height:125%;writing-mode:lr-tb;text-anchor:start;fill:#fff;fill-opacity:1;stroke:#6ed66e;stroke-width:1pt;stroke-linecap:butt;stroke-linejoin:miter;stroke-opacity:.27868852;font-family:Bitstream Vera Sans Mono"/><path d="M7.625 8c-.523 0-1.573.19-1.573 1.026l.118 16.517c17.672-.964 14.124-8.257 35.83-11.91l-.063-4.342c-.078-1.125-.54-1.232-1.61-1.225z" style="opacity:.53142856;fill:url(#u);fill-opacity:1;fill-rule:evenodd;stroke:none;stroke-width:.25pt;stroke-linecap:butt;stroke-linejoin:miter;stroke-opacity:1"/><rect width="34.026" height="26.057" x="6.989" y="8.981" rx=".118" ry=".118" style="opacity:.71428573;fill:none;fill-opacity:1;fill-rule:evenodd;stroke:#000;stroke-width:1.9999992;stroke-linecap:round;stroke-linejoin:round;stroke-miterlimit:4;stroke-dasharray:none;stroke-dashoffset:0;stroke-opacity:1"/><rect width="4.02" height="2.959" x="35.486" y="37.515" rx=".358" ry=".56" style="opacity:1;fill:url(#v);fill-opacity:1;fill-rule:evenodd;stroke:url(#v);stroke-width:1.00000119;stroke-linecap:round;stroke-linejoin:miter;stroke-miterlimit:4;stroke-dasharray:none;stroke-dashoffset:0;stroke-opacity:1"/><rect width="2" height="2" x="32" y="38" rx=".56" ry=".56" style="opacity:1;fill:#93d94c;fill-opacity:1;fill-rule:evenodd;stroke:none;stroke-width:2;stroke-linecap:round;stroke-linejoin:miter;stroke-miterlimit:4;stroke-dasharray:none;stroke-dashoffset:0;stroke-opacity:1"/><path d="M28.875 38.75a.563.563 0 1 1-1.125 0 .563.563 0 1 1 1.125 0" style="opacity:1;color:#000;fill:#fff;fill-opacity:1;fill-rule:nonzero;stroke:none;stroke-width:1;stroke-linecap:butt;stroke-linejoin:round;marker:none;marker-start:none;marker-mid:none;marker-end:none;stroke-miterlimit:4;stroke-dasharray:none;stroke-dashoffset:0;stroke-opacity:1;visibility:visible;display:inline;overflow:visible" transform="translate(4.375 -.063)"/></svg>