<svg xmlns="http://www.w3.org/2000/svg" xmlns:xlink="http://www.w3.org/1999/xlink" width="48" height="48" viewBox="0 0 48 48"><defs><linearGradient id="j"><stop offset="0" style="stop-color:black;stop-opacity:1"/><stop offset="1" style="stop-color:black;stop-opacity:0"/></linearGradient><linearGradient id="a"><stop offset="0" style="stop-color:black;stop-opacity:0"/><stop offset=".5" style="stop-color:black;stop-opacity:1"/><stop offset="1" style="stop-color:black;stop-opacity:0"/></linearGradient><linearGradient xlink:href="#a" id="l" x1="302.857" x2="302.857" y1="366.648" y2="609.505" gradientTransform="matrix(2.77439 0 0 1.9697 -1892.179 -872.885)" gradientUnits="userSpaceOnUse"/><linearGradient id="b"><stop offset="0" style="stop-color:#000;stop-opacity:.12871288"/><stop offset="1" style="stop-color:#000;stop-opacity:0"/></linearGradient><linearGradient id="c"><stop offset="0" style="stop-color:#fff;stop-opacity:1"/><stop offset="1" style="stop-color:#ededed;stop-opacity:1"/></linearGradient><linearGradient id="e"><stop offset="0" style="stop-color:#9aa29a;stop-opacity:1"/><stop offset="1" style="stop-color:#b5beb5;stop-opacity:1"/></linearGradient><linearGradient id="g"><stop offset="0" style="stop-color:#fff;stop-opacity:1"/><stop offset="1" style="stop-color:#dcdcdc;stop-opacity:1"/></linearGradient><linearGradient id="h"><stop offset="0" style="stop-color:#ededed;stop-opacity:1"/><stop offset="1" style="stop-color:#c8c8c8;stop-opacity:1"/></linearGradient><linearGradient id="i"><stop offset="0" style="stop-color:#989690;stop-opacity:1"/><stop offset="1" style="stop-color:#656460;stop-opacity:1"/></linearGradient><linearGradient xlink:href="#b" id="v" x1="8.78" x2="9.762" y1="37.785" y2="32.203" gradientTransform="matrix(2.3949 0 0 .78106 2.88 .343)" gradientUnits="userSpaceOnUse"/><linearGradient xlink:href="#c" id="u" x1="11.233" x2="21.112" y1="13.686" y2="24.133" gradientTransform="matrix(1.37093 0 0 1.44376 2.431 -.14)" gradientUnits="userSpaceOnUse"/><linearGradient xlink:href="#e" id="t" x1="8.916" x2="9.886" y1="37.197" y2="52.091" gradientTransform="matrix(2.45478 0 0 .762 2.88 .343)" gradientUnits="userSpaceOnUse"/><linearGradient xlink:href="#e" id="s" x1="8.916" x2="9.886" y1="37.197" y2="52.091" gradientTransform="matrix(2.45478 0 0 .762 2.88 .343)" gradientUnits="userSpaceOnUse"/><linearGradient xlink:href="#g" id="r" x1="10.184" x2="15.311" y1="15.148" y2="29.569" gradientTransform="matrix(1.81927 0 0 1.0282 2.88 .343)" gradientUnits="userSpaceOnUse"/><linearGradient xlink:href="#h" id="p" x1="5.827" x2="13.467" y1="7.231" y2="17.877" gradientTransform="matrix(1.5706 0 0 1.19098 2.88 .343)" gradientUnits="userSpaceOnUse"/><linearGradient xlink:href="#i" id="o" x1="2.062" x2="30.6" y1="15.257" y2="15.257" gradientTransform="matrix(1.34347 0 0 1.41785 2.88 .315)" gradientUnits="userSpaceOnUse"/><radialGradient xlink:href="#j" id="n" cx="605.714" cy="486.648" r="117.143" fx="605.714" fy="486.648" gradientTransform="matrix(-2.77439 0 0 1.9697 112.762 -872.885)" gradientUnits="userSpaceOnUse"/><radialGradient xlink:href="#j" id="m" cx="605.714" cy="486.648" r="117.143" fx="605.714" fy="486.648" gradientTransform="matrix(2.77439 0 0 1.9697 -1891.633 -872.885)" gradientUnits="userSpaceOnUse"/></defs><path d="M-1559.252-150.697h1339.633V327.66h-1339.633z" style="opacity:.40206185;color:#000;fill:url(#l);fill-opacity:1;fill-rule:nonzero;stroke:none;stroke-width:1;stroke-linecap:round;stroke-linejoin:miter;marker:none;marker-start:none;marker-mid:none;marker-end:none;stroke-miterlimit:4;stroke-dasharray:none;stroke-dashoffset:0;stroke-opacity:1;visibility:visible;display:inline;overflow:visible" transform="matrix(.0227 0 0 .02298 44.99 37.784)"/><path d="M-219.619-150.68v478.33c142.874.9 345.4-107.17 345.4-239.196S-33.655-150.68-219.619-150.68" style="opacity:.40206185;color:#000;fill:url(#m);fill-opacity:1;fill-rule:nonzero;stroke:none;stroke-width:1;stroke-linecap:round;stroke-linejoin:miter;marker:none;marker-start:none;marker-mid:none;marker-end:none;stroke-miterlimit:4;stroke-dasharray:none;stroke-dashoffset:0;stroke-opacity:1;visibility:visible;display:inline;overflow:visible" transform="matrix(.0227 0 0 .02298 44.99 37.784)"/><path d="M-1559.252-150.68v478.33c-142.875.9-345.4-107.17-345.4-239.196s159.436-239.134 345.4-239.134" style="opacity:.40206185;color:#000;fill:url(#n);fill-opacity:1;fill-rule:nonzero;stroke:none;stroke-width:1;stroke-linecap:round;stroke-linejoin:miter;marker:none;marker-start:none;marker-mid:none;marker-end:none;stroke-miterlimit:4;stroke-dasharray:none;stroke-dashoffset:0;stroke-opacity:1;visibility:visible;display:inline;overflow:visible" transform="matrix(.0227 0 0 .02298 44.99 37.784)"/><path d="M6.333 16.972v24.51h36.973l-.062-24.392c-.003-1.378-11.848-14.678-14.033-14.678h-8.552c-2.297 0-14.326 13.262-14.326 14.56z" style="fill:url(#o);fill-opacity:1;fill-rule:evenodd;stroke:url(#o);stroke-width:.8566044;stroke-linecap:butt;stroke-linejoin:round;stroke-miterlimit:4;stroke-opacity:1"/><path d="M6.923 16.787c-.398-.43 11.887-13.693 13.744-13.693h8.376c1.747 0 14.037 13.128 13.427 13.885L31.61 30.475l-12.314-.318z" style="fill:url(#p);fill-opacity:1;fill-rule:evenodd;stroke:none;stroke-width:.25pt;stroke-linecap:butt;stroke-linejoin:miter;stroke-opacity:1"/><path d="m19.078 30.018-7.333-8.746 24.818-6.936 3.03 6.216-7.417 9.44" style="fill:#000;fill-opacity:.14619882;fill-rule:evenodd;stroke:none;stroke-width:1;stroke-linecap:butt;stroke-linejoin:miter;stroke-miterlimit:4;stroke-opacity:1"/><path d="m18.292 29.836-7.483-8.81 24.648-6.893 3.174 6.27-7.24 9.408" style="fill:#000;fill-opacity:.14619882;fill-rule:evenodd;stroke:none;stroke-width:1;stroke-linecap:butt;stroke-linejoin:miter;stroke-miterlimit:4;stroke-opacity:1"/><path d="m18.775 29.957-7.675-8.66 24.968-7.065 3.286 6.593-7.48 9.107" style="fill:#000;fill-opacity:.14619882;fill-rule:evenodd;stroke:none;stroke-width:1;stroke-linecap:butt;stroke-linejoin:miter;stroke-miterlimit:4;stroke-opacity:1"/><path d="m18.594 30.44-7.333-8.745L35.973 14.8l3.11 6.388-7.12 8.986" style="fill:url(#r);fill-opacity:1;fill-rule:evenodd;stroke:none;stroke-width:1;stroke-linecap:butt;stroke-linejoin:miter;stroke-miterlimit:4;stroke-opacity:1"/><path d="M20.488 29.064 7.092 40.036l13.91-9.604h9.017l12.42 9.482-11.864-10.85z" style="fill:url(#s);fill-opacity:1;fill-rule:evenodd;stroke:none;stroke-width:1;stroke-linecap:butt;stroke-linejoin:miter;stroke-miterlimit:4;stroke-opacity:1"/><path d="M6.963 16.885 18.48 31.201l1.068-.854z" style="color:#000;fill:url(#t);fill-opacity:1;fill-rule:evenodd;stroke:none;stroke-width:1;stroke-linecap:butt;stroke-linejoin:miter;marker:none;marker-start:none;marker-mid:none;marker-end:none;stroke-miterlimit:4;stroke-dashoffset:0;stroke-opacity:1;visibility:visible;display:inline;overflow:visible"/><path d="m7.308 17.131.03 23.211h34.946l-.063-23.084c-.002-.75-11.216-13.799-13.384-13.799h-7.895c-2.253 0-13.635 12.892-13.634 13.672z" style="fill:none;fill-opacity:.75;fill-rule:evenodd;stroke:url(#u);stroke-width:.85660428;stroke-linecap:butt;stroke-linejoin:miter;stroke-miterlimit:4;stroke-opacity:1"/><path d="m20.957 30.453-11.941 8.27 2.22.007 9.997-6.87 8.822-1.422z" style="fill:#fff;fill-opacity:1;fill-rule:evenodd;stroke:none;stroke-width:1;stroke-linecap:butt;stroke-linejoin:miter;stroke-miterlimit:4;stroke-opacity:1"/><path d="m11.428 21.67 1.324 1.41 22.791-6.883 2.915 5.682.614-.712-3.069-6.378z" style="fill:#fff;fill-opacity:1;fill-rule:evenodd;stroke:none;stroke-width:1px;stroke-linecap:butt;stroke-linejoin:miter;stroke-opacity:1"/><path d="m13.308 23.636 6.026 6.454 1.197-1.026 10.087.043.812.727 3.975-4.744c-1.154-1.41-22.097-1.454-22.097-1.454" style="fill:url(#v);fill-opacity:1;fill-rule:evenodd;stroke:none;stroke-width:1px;stroke-linecap:butt;stroke-linejoin:miter;stroke-opacity:1"/><path d="M41.813 17.848 31.86 30.479l-1.068-.855z" style="color:#000;fill:#b1b1b1;fill-opacity:1;fill-rule:evenodd;stroke:none;stroke-width:1;stroke-linecap:butt;stroke-linejoin:miter;marker:none;marker-start:none;marker-mid:none;marker-end:none;stroke-miterlimit:4;stroke-dashoffset:0;stroke-opacity:1;visibility:visible;display:inline;overflow:visible"/></svg>