<svg xmlns="http://www.w3.org/2000/svg" xmlns:xlink="http://www.w3.org/1999/xlink" width="48" height="48" viewBox="0 0 48 48"><defs><linearGradient id="h"><stop offset="0" style="stop-color:#fff;stop-opacity:1"/><stop offset="1" style="stop-color:#fff;stop-opacity:0"/></linearGradient><linearGradient id="g"><stop offset="0" style="stop-color:#000;stop-opacity:1"/><stop offset="1" style="stop-color:#000;stop-opacity:0"/></linearGradient><linearGradient id="f"><stop offset="0" style="stop-color:#fff;stop-opacity:1"/><stop offset="1" style="stop-color:#fff;stop-opacity:0"/></linearGradient><linearGradient id="e"><stop offset="0" style="stop-color:#3465a4;stop-opacity:1"/><stop offset="0" style="stop-color:#9fbce1;stop-opacity:1"/><stop offset="0" style="stop-color:#6b95ca;stop-opacity:1"/><stop offset=".75" style="stop-color:#3d6aa5;stop-opacity:1"/><stop offset="1" style="stop-color:#386eb4;stop-opacity:1"/></linearGradient><linearGradient id="d"><stop offset="0" style="stop-color:#98a0a9;stop-opacity:1"/><stop offset="1" style="stop-color:#c3d0dd;stop-opacity:1"/></linearGradient><linearGradient id="c"><stop offset="0" style="stop-color:#fff;stop-opacity:1"/><stop offset="1" style="stop-color:#000;stop-opacity:1"/></linearGradient><linearGradient id="a"><stop offset="0" style="stop-color:#b6b6b6;stop-opacity:1"/><stop offset=".5" style="stop-color:#f2f2f2;stop-opacity:1"/><stop offset=".676" style="stop-color:#fafafa;stop-opacity:1"/><stop offset=".841" style="stop-color:#d8d8d8;stop-opacity:1"/><stop offset=".875" style="stop-color:#f2f2f2;stop-opacity:1"/><stop offset="1" style="stop-color:#dbdbdb;stop-opacity:1"/></linearGradient><linearGradient id="i"><stop offset="0" style="stop-color:#000;stop-opacity:1"/><stop offset="1" style="stop-color:#000;stop-opacity:0"/></linearGradient><linearGradient xlink:href="#a" id="l" x1="19.648" x2="20.631" y1="42.254" y2="6.776" gradientTransform="translate(2.537 4.968)scale(.87827)" gradientUnits="userSpaceOnUse"/><linearGradient xlink:href="#c" id="m" x1="50.153" x2="25.291" y1="-3.632" y2="-4.3" gradientTransform="translate(5.328 1.65)scale(.87827)" gradientUnits="userSpaceOnUse"/><linearGradient xlink:href="#d" id="n" x1="38.228" x2="37.535" y1="13.603" y2="6.629" gradientTransform="translate(2.848 5.589)scale(.87827)" gradientUnits="userSpaceOnUse"/><linearGradient xlink:href="#e" id="p" x1="9.75" x2="16.915" y1="32.284" y2="39.443" gradientTransform="translate(2.537 4.968)scale(.87827)" gradientUnits="userSpaceOnUse"/><linearGradient xlink:href="#f" id="q" x1="12.005" x2="10.651" y1="35.688" y2="33.195" gradientTransform="rotate(-1.5 3.823 -60.845)scale(1.0076)" gradientUnits="userSpaceOnUse"/><linearGradient xlink:href="#g" id="r" x1="14.018" x2="15.416" y1="36.943" y2="38.268" gradientTransform="rotate(-1.13 207.294 -107.65)scale(.87827)" gradientUnits="userSpaceOnUse"/><linearGradient xlink:href="#h" id="o" x1="31.177" x2="40.859" y1="19.822" y2="9.657" gradientUnits="userSpaceOnUse"/><radialGradient xlink:href="#i" id="k" cx="24.813" cy="39.125" r="17.688" fx="24.813" fy="39.125" gradientTransform="matrix(1 0 0 .37456 0 24.47)" gradientUnits="userSpaceOnUse"/><radialGradient xlink:href="#i" id="j" cx="24.813" cy="39.125" r="17.688" fx="24.813" fy="39.125" gradientTransform="matrix(1 0 0 .37456 0 24.47)" gradientUnits="userSpaceOnUse"/></defs><path d="M42.5 39.125a17.688 6.625 0 1 1-35.375 0 17.688 6.625 0 1 1 35.375 0" style="opacity:.19886367;color:#000;fill:url(#j);fill-opacity:1;fill-rule:nonzero;stroke:none;stroke-width:1;stroke-linecap:butt;stroke-linejoin:miter;marker:none;marker-start:none;marker-mid:none;marker-end:none;stroke-miterlimit:4;stroke-dasharray:none;stroke-dashoffset:0;stroke-opacity:1;visibility:visible;display:inline;overflow:visible" transform="matrix(.75112 0 0 .5787 17.04 19.363)"/><path d="M42.5 39.125a17.688 6.625 0 1 1-35.375 0 17.688 6.625 0 1 1 35.375 0" style="opacity:.3125;color:#000;fill:url(#k);fill-opacity:1;fill-rule:nonzero;stroke:none;stroke-width:1;stroke-linecap:butt;stroke-linejoin:miter;marker:none;marker-start:none;marker-mid:none;marker-end:none;stroke-miterlimit:4;stroke-dasharray:none;stroke-dashoffset:0;stroke-opacity:1;visibility:visible;display:inline;overflow:visible" transform="matrix(.83607 0 0 .68544 -7.96 15.718)"/><path d="m17.907 21.216 18.992 19.431c.769.879 3.204 1.557 4.83 0 1.572-1.503 1.208-3.622-.329-5.16l-18.224-19.54c2.25-6.25-2.304-11.5-8.179-10.376l-1.262 1.153 3.952 3.733.22 3.293-2.951 2.694-3.527-.388-3.622-3.403-1.27 1.254c-.591 5.642 5.307 10.684 11.37 7.309z" style="opacity:1;color:#000;fill:url(#l);fill-opacity:1;fill-rule:nonzero;stroke:#888a85;stroke-width:.9999997;stroke-linecap:butt;stroke-linejoin:miter;marker:none;marker-start:none;marker-mid:none;marker-end:none;stroke-miterlimit:4;stroke-dasharray:none;stroke-dashoffset:0;stroke-opacity:1;visibility:visible;display:inline;overflow:visible"/><path d="M18.117 19.94 37.32 39.968c.595.68 2.48 1.205 3.74 0 1.216-1.164.935-2.805-.255-3.995l-18.492-19.62c1.5-6.5-1.859-10.005-6.859-9.88l-.27.273 3.603 3.236.13 4.182-3.614 3.298-4.242-.458-3.176-2.991-.353.43c-.313 5.969 6.492 8.685 10.585 5.497z" style="opacity:.42613639;color:#000;fill:none;fill-opacity:1;fill-rule:nonzero;stroke:#fff;stroke-width:.99999917;stroke-linecap:butt;stroke-linejoin:miter;marker:none;marker-start:none;marker-mid:none;marker-end:none;stroke-miterlimit:4;stroke-dasharray:none;stroke-dashoffset:0;stroke-opacity:1;visibility:visible;display:inline;overflow:visible"/><rect width="23.268" height="2.055" x="28.185" y="-2.618" rx=".884" ry=".884" style="opacity:.17045456;color:#000;fill:none;fill-opacity:1;fill-rule:nonzero;stroke:url(#m);stroke-width:.9999972;stroke-linecap:butt;stroke-linejoin:miter;marker:none;marker-start:none;marker-mid:none;marker-end:none;stroke-miterlimit:4;stroke-dasharray:none;stroke-dashoffset:0;stroke-opacity:1;visibility:visible;display:inline;overflow:visible" transform="rotate(45.738)"/><path d="M22.499 30.125c.833-.714 13.284-13.448 13.284-13.448l3.074-.22 4.83-6.697-4.024-3.585-6.258 5.38v3.074L20.67 27.858c-.604.603 1.06 2.926 1.829 2.267z" style="opacity:1;color:#000;fill:url(#n);fill-opacity:1;fill-rule:nonzero;stroke:#878f9d;stroke-width:.9999997;stroke-linecap:butt;stroke-linejoin:miter;marker:none;marker-start:none;marker-mid:none;marker-end:none;stroke-miterlimit:4;stroke-dasharray:none;stroke-dashoffset:0;stroke-opacity:1;visibility:visible;display:inline;overflow:visible"/><path d="M22.402 29.085c.647-.554 13.024-13.23 13.024-13.23l2.929-.247 4.214-5.662-2.89-2.55-5.476 4.718.155 2.851-12.676 13.292c-.469.469.124 1.34.72.828z" style="opacity:.53977272;color:#000;fill:none;fill-opacity:1;fill-rule:nonzero;stroke:url(#o);stroke-width:1.00000024;stroke-linecap:butt;stroke-linejoin:miter;marker:none;marker-start:none;marker-mid:none;marker-end:none;stroke-miterlimit:4;stroke-dasharray:none;stroke-dashoffset:0;stroke-opacity:1;visibility:visible;display:inline;overflow:visible"/><path d="M8.465 43.612c1.317 1.465 4.974 2.128 6.596-.71.707-1.238 2.094-4.703 8.28-10.272 1.04-.934 2.14-3.07 1.208-4.223l-2.416-2.416c-.988-1.098-3.734-.585-4.86.951-3.36 4.596-8.847 8.255-10.084 8.697-2.368.846-2.102 4.336-.535 5.996z" style="color:#000;fill:url(#p);fill-opacity:1;fill-rule:nonzero;stroke:#204a87;stroke-width:.9999997;stroke-linecap:butt;stroke-linejoin:miter;stroke-miterlimit:4;stroke-dashoffset:0;stroke-opacity:1;marker:none;marker-start:none;marker-mid:none;marker-end:none;visibility:visible;display:inline;overflow:visible"/><path d="M43.25 37.5a1.375 1.375 0 1 1-2.75 0 1.375 1.375 0 1 1 2.75 0z" style="opacity:1;color:#000;fill:#fff;fill-opacity:1;fill-rule:nonzero;stroke:#a1a1a1;stroke-width:1.13860166;stroke-linecap:butt;stroke-linejoin:miter;marker:none;marker-start:none;marker-mid:none;marker-end:none;stroke-miterlimit:4;stroke-dasharray:none;stroke-dashoffset:0;stroke-opacity:1;visibility:visible;display:inline;overflow:visible" transform="translate(2.427 5.077)scale(.87827)"/><path d="M20.771 28.201a1.768 1.768 0 1 1-3.535 0 1.768 1.768 0 1 1 3.535 0" style="opacity:.60227272;color:#000;fill:#fff;fill-opacity:1;fill-rule:nonzero;stroke:none;stroke-width:1;stroke-linecap:butt;stroke-linejoin:miter;marker:none;marker-start:none;marker-mid:none;marker-end:none;stroke-miterlimit:4;stroke-dasharray:none;stroke-dashoffset:0;stroke-opacity:1;visibility:visible;display:inline;overflow:visible" transform="translate(9.155 11.251)scale(.57088)"/><path d="M18.679 29.625s-7.17 7.3-10.529 8.537" style="opacity:1;color:#000;fill:none;fill-opacity:1;fill-rule:nonzero;stroke:url(#q);stroke-width:2.29450917;stroke-linecap:round;stroke-linejoin:round;marker:none;marker-start:none;marker-mid:none;marker-end:none;stroke-miterlimit:4;stroke-dasharray:none;stroke-dashoffset:0;stroke-opacity:1;visibility:visible;display:inline;overflow:visible"/><path d="M8.806 42.487c1.441 1.745 4.6 2.16 5.591-.37.681-1.74 3.334-5.667 8.198-10.044.817-.735 1.682-2.415.948-3.32l-1.898-1.9c-.777-.863-2.936-.46-3.822.748-2.64 3.613-8.483 8.34-9.896 8.806-2.186.721-1.777 3.221-.545 4.526z" style="color:#000;fill:none;fill-opacity:1;fill-rule:nonzero;stroke:#fff;stroke-width:.99999946;stroke-linecap:butt;stroke-linejoin:miter;marker:none;marker-start:none;marker-mid:none;marker-end:none;stroke-miterlimit:4;stroke-dasharray:none;stroke-dashoffset:0;stroke-opacity:1;visibility:visible;display:inline;overflow:visible;opacity:.19886364"/><path d="M20.825 31.261s-7.323 6.617-8.914 10.86" style="opacity:.27840911;color:#000;fill:none;fill-opacity:1;fill-rule:nonzero;stroke:url(#r);stroke-width:2.29450917;stroke-linecap:round;stroke-linejoin:round;marker:none;marker-start:none;marker-mid:none;marker-end:none;stroke-miterlimit:4;stroke-dashoffset:0;stroke-opacity:1;visibility:visible;display:inline;overflow:visible"/></svg>