<svg xmlns="http://www.w3.org/2000/svg" xmlns:xlink="http://www.w3.org/1999/xlink" width="48" height="48" viewBox="0 0 48 48"><defs><linearGradient id="h"><stop offset="0" style="stop-color:black;stop-opacity:1"/><stop offset="1" style="stop-color:black;stop-opacity:0"/></linearGradient><linearGradient id="a"><stop offset="0" style="stop-color:black;stop-opacity:0"/><stop offset=".5" style="stop-color:black;stop-opacity:1"/><stop offset="1" style="stop-color:black;stop-opacity:0"/></linearGradient><linearGradient xlink:href="#a" id="i" x1="302.857" x2="302.857" y1="366.648" y2="609.505" gradientTransform="matrix(2.77439 0 0 1.9697 -1892.179 -872.885)" gradientUnits="userSpaceOnUse"/><linearGradient id="g"><stop offset="0" style="stop-color:#6194cb;stop-opacity:1"/><stop offset="1" style="stop-color:#729fcf;stop-opacity:1"/></linearGradient><linearGradient id="e"><stop offset="0" style="stop-color:#424242;stop-opacity:1"/><stop offset="1" style="stop-color:#777;stop-opacity:1"/></linearGradient><linearGradient id="c"><stop offset="0" style="stop-color:#fff;stop-opacity:1"/><stop offset="1" style="stop-color:#fff;stop-opacity:0"/></linearGradient><linearGradient id="b"><stop offset="0" style="stop-color:#fff;stop-opacity:.87628865"/><stop offset="1" style="stop-color:#fffffe;stop-opacity:0"/></linearGradient><linearGradient xlink:href="#b" id="n" x1="6.23" x2="9.898" y1="13.773" y2="66.834" gradientTransform="matrix(1.51684 0 0 .70898 -.88 -1.318)" gradientUnits="userSpaceOnUse"/><linearGradient xlink:href="#c" id="q" x1="13.036" x2="12.854" y1="32.567" y2="46.689" gradientTransform="matrix(1.31749 0 0 .81626 -.88 -1.318)" gradientUnits="userSpaceOnUse"/><linearGradient xlink:href="#e" id="m" x1="18.113" x2="15.515" y1="31.368" y2="6.18" gradientUnits="userSpaceOnUse"/><linearGradient xlink:href="#g" id="p" x1="22.176" x2="22.065" y1="36.988" y2="32.05" gradientUnits="userSpaceOnUse"/><radialGradient xlink:href="#h" id="l" cx="605.714" cy="486.648" r="117.143" fx="605.714" fy="486.648" gradientTransform="matrix(-2.77439 0 0 1.9697 112.762 -872.885)" gradientUnits="userSpaceOnUse"/><radialGradient xlink:href="#h" id="j" cx="605.714" cy="486.648" r="117.143" fx="605.714" fy="486.648" gradientTransform="matrix(2.77439 0 0 1.9697 -1891.633 -872.885)" gradientUnits="userSpaceOnUse"/></defs><g style="display:inline"><path d="M-1559.252-150.697h1339.633V327.66h-1339.633z" style="opacity:.40206185;color:#000;fill:url(#i);fill-opacity:1;fill-rule:nonzero;stroke:none;stroke-width:1;stroke-linecap:round;stroke-linejoin:miter;marker:none;marker-start:none;marker-mid:none;marker-end:none;stroke-miterlimit:4;stroke-dasharray:none;stroke-dashoffset:0;stroke-opacity:1;visibility:visible;display:inline;overflow:visible" transform="matrix(.02262 0 0 .02087 43.383 36.37)"/><path d="M-219.619-150.68v478.33c142.874.9 345.4-107.17 345.4-239.196S-33.655-150.68-219.619-150.68" style="opacity:.40206185;color:#000;fill:url(#j);fill-opacity:1;fill-rule:nonzero;stroke:none;stroke-width:1;stroke-linecap:round;stroke-linejoin:miter;marker:none;marker-start:none;marker-mid:none;marker-end:none;stroke-miterlimit:4;stroke-dasharray:none;stroke-dashoffset:0;stroke-opacity:1;visibility:visible;display:inline;overflow:visible" transform="matrix(.02262 0 0 .02087 43.383 36.37)"/><path d="M-1559.252-150.68v478.33c-142.875.9-345.4-107.17-345.4-239.196s159.436-239.134 345.4-239.134" style="opacity:.40206185;color:#000;fill:url(#l);fill-opacity:1;fill-rule:nonzero;stroke:none;stroke-width:1;stroke-linecap:round;stroke-linejoin:miter;marker:none;marker-start:none;marker-mid:none;marker-end:none;stroke-miterlimit:4;stroke-dasharray:none;stroke-dashoffset:0;stroke-opacity:1;visibility:visible;display:inline;overflow:visible" transform="matrix(.02262 0 0 .02087 43.383 36.37)"/></g><path d="M4.522 38.687c.022.417.46.833.876.833h31.327c.416 0 .81-.416.789-.833l-.936-27.226c-.022-.417-.46-.833-.877-.833h-13.27c-.486 0-1.235-.316-1.402-1.107l-.612-2.893c-.155-.735-.882-1.038-1.298-1.038H4.34c-.416 0-.81.417-.789.833z" style="fill:url(#m);fill-opacity:1;fill-rule:nonzero;stroke:url(#m);stroke-width:1;stroke-linecap:round;stroke-linejoin:round;stroke-miterlimit:4;stroke-dasharray:none;stroke-opacity:1"/><path d="M5.227 22.563h30.265" style="opacity:.11363633;color:#000;fill:#729fcf;fill-opacity:1;fill-rule:nonzero;stroke:#000;stroke-width:1.00000024;stroke-linecap:round;stroke-linejoin:round;marker:none;marker-start:none;marker-mid:none;marker-end:none;stroke-miterlimit:4;stroke-dasharray:none;stroke-dashoffset:0;stroke-opacity:1;visibility:visible;display:inline;overflow:visible"/><path d="M5.042 18.563H35.49" style="opacity:.11363633;color:#000;fill:#729fcf;fill-opacity:1;fill-rule:nonzero;stroke:#000;stroke-width:1.00000036;stroke-linecap:round;stroke-linejoin:round;marker:none;marker-start:none;marker-mid:none;marker-end:none;stroke-miterlimit:4;stroke-dasharray:none;stroke-dashoffset:0;stroke-opacity:1;visibility:visible;display:inline;overflow:visible"/><path d="M4.98 12.563h30.508" style="opacity:.11363633;color:#000;fill:#729fcf;fill-opacity:1;fill-rule:nonzero;stroke:#000;stroke-width:1;stroke-linecap:round;stroke-linejoin:round;marker:none;marker-start:none;marker-mid:none;marker-end:none;stroke-miterlimit:4;stroke-dasharray:none;stroke-dashoffset:0;stroke-opacity:1;visibility:visible;display:inline;overflow:visible"/><path d="M5.386 32.563h30.109" style="opacity:.11363633;color:#000;fill:#729fcf;fill-opacity:1;fill-rule:nonzero;stroke:#000;stroke-width:1.00000036;stroke-linecap:round;stroke-linejoin:round;marker:none;marker-start:none;marker-mid:none;marker-end:none;stroke-miterlimit:4;stroke-dasharray:none;stroke-dashoffset:0;stroke-opacity:1;visibility:visible;display:inline;overflow:visible"/><path d="M5.51 34.563h29.987" style="opacity:.11363633;color:#000;fill:#729fcf;fill-opacity:1;fill-rule:nonzero;stroke:#000;stroke-width:1.00000024;stroke-linecap:round;stroke-linejoin:round;marker:none;marker-start:none;marker-mid:none;marker-end:none;stroke-miterlimit:4;stroke-dasharray:none;stroke-dashoffset:0;stroke-opacity:1;visibility:visible;display:inline;overflow:visible"/><path d="M5.042 16.563H35.49" style="opacity:.11363633;color:#000;fill:#729fcf;fill-opacity:1;fill-rule:nonzero;stroke:#000;stroke-width:1.00000036;stroke-linecap:round;stroke-linejoin:round;marker:none;marker-start:none;marker-mid:none;marker-end:none;stroke-miterlimit:4;stroke-dasharray:none;stroke-dashoffset:0;stroke-opacity:1;visibility:visible;display:inline;overflow:visible"/><path d="M5.011 14.563H35.49" style="opacity:.11363633;color:#000;fill:#729fcf;fill-opacity:1;fill-rule:nonzero;stroke:#000;stroke-width:1.00000024;stroke-linecap:round;stroke-linejoin:round;marker:none;marker-start:none;marker-mid:none;marker-end:none;stroke-miterlimit:4;stroke-dasharray:none;stroke-dashoffset:0;stroke-opacity:1;visibility:visible;display:inline;overflow:visible"/><path d="M4.922 10.563h15.28" style="opacity:.11363633;color:#000;fill:#729fcf;fill-opacity:1;fill-rule:nonzero;stroke:#000;stroke-width:1.00000024;stroke-linecap:round;stroke-linejoin:round;marker:none;marker-start:none;marker-mid:none;marker-end:none;stroke-miterlimit:4;stroke-dasharray:none;stroke-dashoffset:0;stroke-opacity:1;visibility:visible;display:inline;overflow:visible"/><path d="M4.874 8.562h14.783" style="opacity:.11363633;color:#000;fill:#729fcf;fill-opacity:1;fill-rule:nonzero;stroke:#000;stroke-width:.99999982;stroke-linecap:round;stroke-linejoin:round;marker:none;marker-start:none;marker-mid:none;marker-end:none;stroke-miterlimit:4;stroke-dasharray:none;stroke-dashoffset:0;stroke-opacity:1;visibility:visible;display:inline;overflow:visible"/><path d="M5.325 28.563h30.169" style="opacity:.11363633;color:#000;fill:#729fcf;fill-opacity:1;fill-rule:nonzero;stroke:#000;stroke-width:1.00000036;stroke-linecap:round;stroke-linejoin:round;marker:none;marker-start:none;marker-mid:none;marker-end:none;stroke-miterlimit:4;stroke-dasharray:none;stroke-dashoffset:0;stroke-opacity:1;visibility:visible;display:inline;overflow:visible"/><path d="M5.288 26.563h30.205" style="opacity:.11363633;color:#000;fill:#729fcf;fill-opacity:1;fill-rule:nonzero;stroke:#000;stroke-width:1;stroke-linecap:round;stroke-linejoin:round;marker:none;marker-start:none;marker-mid:none;marker-end:none;stroke-miterlimit:4;stroke-dasharray:none;stroke-dashoffset:0;stroke-opacity:1;visibility:visible;display:inline;overflow:visible"/><path d="M5.227 24.563h30.265" style="opacity:.11363633;color:#000;fill:#729fcf;fill-opacity:1;fill-rule:nonzero;stroke:#000;stroke-width:1.00000024;stroke-linecap:round;stroke-linejoin:round;marker:none;marker-start:none;marker-mid:none;marker-end:none;stroke-miterlimit:4;stroke-dasharray:none;stroke-dashoffset:0;stroke-opacity:1;visibility:visible;display:inline;overflow:visible"/><path d="M5.196 20.563h30.296" style="opacity:.11363633;color:#000;fill:#729fcf;fill-opacity:1;fill-rule:nonzero;stroke:#000;stroke-width:1.00000012;stroke-linecap:round;stroke-linejoin:round;marker:none;marker-start:none;marker-mid:none;marker-end:none;stroke-miterlimit:4;stroke-dasharray:none;stroke-dashoffset:0;stroke-opacity:1;visibility:visible;display:inline;overflow:visible"/><path d="M5.325 30.563h30.169" style="opacity:.11363633;color:#000;fill:#729fcf;fill-opacity:1;fill-rule:nonzero;stroke:#000;stroke-width:1.00000036;stroke-linecap:round;stroke-linejoin:round;marker:none;marker-start:none;marker-mid:none;marker-end:none;stroke-miterlimit:4;stroke-dasharray:none;stroke-dashoffset:0;stroke-opacity:1;visibility:visible;display:inline;overflow:visible"/><path d="M5.51 36.563h29.987" style="opacity:.11363633;color:#000;fill:#729fcf;fill-opacity:1;fill-rule:nonzero;stroke:#000;stroke-width:1.00000024;stroke-linecap:round;stroke-linejoin:round;marker:none;marker-start:none;marker-mid:none;marker-end:none;stroke-miterlimit:4;stroke-dasharray:none;stroke-dashoffset:0;stroke-opacity:1;visibility:visible;display:inline;overflow:visible"/><path d="M6.068 38.864c.017.312-.18.52-.498.416s-.537-.312-.553-.624L4.069 6.59c-.016-.312.165-.5.477-.5l14.422-.048c.313 0 .932.3 1.133 1.322l.574 2.816c-.427-.466-.42-.48-.638-1.157l-.406-1.26c-.219-.727-.698-.831-1.01-.831H5.733c-.312 0-.51.208-.493.52l.938 31.515z" style="color:#000;fill:url(#n);fill-opacity:1;fill-rule:nonzero;stroke:none;stroke-width:1.213805;stroke-linecap:butt;stroke-linejoin:miter;marker:none;marker-start:none;marker-mid:none;marker-end:none;stroke-miterlimit:4;stroke-dashoffset:0;stroke-opacity:1;visibility:visible;display:block;overflow:visible;opacity:.45142857"/><g style="stroke-miterlimit:4;stroke-width:.99946535;stroke:none;fill-rule:nonzero;fill-opacity:.75706214;fill:#fff"><path d="M42.417 8.515c.005-.097-.128-.247-.235-.247l-13.031-.002s.911.588 2.201.596l11.054.071c.011-.211.003-.256.011-.418" style="fill-opacity:.50847459;fill:#fff" transform="matrix(1.04076 0 .0545 1.04076 -8.67 2.67)"/></g><path d="M39.784 39.51c1.143-.043 1.963-1.096 2.047-2.32a1141 1141 0 0 1 1.659-21.232c.072-.248-.168-.495-.48-.495H8.639L6.789 37.33c-.115.982-.467 1.804-1.55 2.183z" style="color:#000;fill:url(#p);fill-opacity:1;fill-rule:nonzero;stroke:#3465a4;stroke-width:1;stroke-linecap:butt;stroke-linejoin:round;marker:none;marker-start:none;marker-mid:none;marker-end:none;stroke-miterlimit:4;stroke-dasharray:none;stroke-dashoffset:0;stroke-opacity:1;visibility:visible;display:block"/><path d="m9.62 16.464 32.791.065-1.574 20.002c-.084 1.071-.45 1.428-1.872 1.428-1.872 0-28.678-.032-31.395-.032.233-.321.334-.99.335-1.005z" style="opacity:.46590909;fill:none;fill-opacity:1;fill-rule:evenodd;stroke:url(#q);stroke-width:.9999997px;stroke-linecap:round;stroke-linejoin:miter;stroke-opacity:1"/><path d="M9.62 16.223 8.454 31.866s8.296-4.148 18.666-4.148 15.555-11.495 15.555-11.495z" style="fill:#fff;fill-opacity:.089285679;fill-rule:evenodd;stroke:none;stroke-width:1px;stroke-linecap:butt;stroke-linejoin:miter;stroke-opacity:1"/></svg>